<svg width="640" height="640" viewBox="0 0 640 640" fill="none" xmlns="http://www.w3.org/2000/svg">
<path d="M613.126 383.141C608.209 373.504 602.049 365.609 595.61 359.271C591.009 354.748 586.278 350.987 581.731 347.891C581.731 337.513 581.731 317.256 581.731 284.787C581.731 258.934 580.079 225.056 572.713 192.66C569.039 176.463 563.9 160.616 556.626 146.273C549.372 131.965 539.964 119.104 527.588 109.319C515.565 99.8489 501.278 92.4168 485.488 86.4673C461.757 77.5716 434.611 71.9933 406.259 68.5643C377.889 65.1543 348.35 63.9492 319.98 63.9314C282.185 63.9504 242.273 66.0996 205.869 72.7536C187.667 76.0711 170.318 80.538 154.491 86.4685C138.701 92.418 124.414 99.8489 112.427 109.32C100.051 119.105 90.607 131.967 83.3525 146.274C72.4798 167.772 66.3381 192.699 62.7388 217.088C59.1953 241.495 58.2667 265.403 58.2667 284.788C58.2667 317.258 58.2667 337.514 58.2667 347.911C57.9508 348.115 57.6361 348.319 57.3202 348.523C47.7644 355.214 37.3928 364.851 29.433 378.472C21.4364 392.056 15.981 409.57 16 431.178C16 435.589 16.2233 440.148 16.6864 444.893C17.6697 454.975 19.692 464.148 22.6239 472.414C32.2165 514.076 71.3861 576.068 126.159 576.068H513.858C568.651 576.068 607.856 513.983 617.394 472.304C620.289 464.057 622.311 454.938 623.295 444.875C623.759 440.15 624 435.59 624 431.179C623.999 411.978 619.713 396.003 613.126 383.141ZM604.628 443.058C603.663 453.01 603.811 452.843 600.249 460.553C596.686 468.263 593.718 470.635 589.172 475.156C584.626 479.678 588.096 476.491 587.576 477.158C582.381 480.846 576.833 484.164 570.858 487.036C542.655 500.565 512.347 497.915 489.06 497.915H319.999H150.939C127.653 497.915 95.117 501.103 66.895 487.575C60.9575 484.702 55.3905 481.403 50.2332 477.715C48.8604 476.028 47.5423 474.286 46.2812 472.414C39.5825 462.313 36.9855 459.866 35.3527 443.057C34.9442 438.905 34.7589 434.958 34.7589 431.177C34.7779 414.72 38.3404 401.913 43.5726 391.646C47.4877 383.973 52.3672 377.71 57.5625 372.613C65.318 364.94 73.7611 359.881 80.2175 356.786C83.4274 355.247 86.155 354.209 88.0111 353.561C88.9385 353.227 89.6629 353.004 90.1082 352.875C90.3125 352.819 90.4977 352.764 90.5725 352.727L90.6651 352.708L95.49 351.485L97.1418 346.76C97.1418 346.76 97.6797 345.184 98.7009 342.331C101.725 333.787 108.776 313.845 116.903 291.051L99.2199 284.768C91.0748 307.656 84.0235 327.653 80.9989 336.178C80.2009 336.456 79.3103 336.808 78.346 337.179C78.346 325.578 78.346 308.435 78.346 284.787C78.346 259.823 79.9979 227.186 86.8438 197.127C90.2768 182.097 94.9888 167.734 101.279 155.336C107.55 142.919 115.362 132.559 124.862 125.054C134.77 117.251 147.22 110.635 161.581 105.242C183.124 97.1434 208.877 91.7692 236.153 88.4884C263.428 85.2077 292.225 84.0038 319.983 84.0038C357.036 83.9848 395.909 86.1542 430.513 92.4915C447.824 95.6418 464.04 99.8489 478.421 105.242C492.764 110.635 505.251 117.251 515.122 125.054C524.622 132.559 532.433 142.92 538.723 155.336C548.15 173.924 554.031 196.942 557.353 219.978C560.73 243.015 561.639 266.051 561.639 284.788C561.639 308.437 561.639 325.579 561.639 337.181C560.692 336.809 559.802 336.458 559.004 336.18C556.164 328.154 549.708 309.956 542.174 288.699L524.491 294.981C529.594 309.307 534.177 322.243 537.498 331.621C539.15 336.292 540.486 340.091 541.432 342.704C542.342 345.336 542.843 346.763 542.843 346.763L544.531 351.471L549.318 352.713C549.411 352.732 553.085 353.714 558.466 356.178C562.51 358.032 567.501 360.719 572.66 364.408C580.397 369.949 588.506 377.695 594.684 388.445C600.845 399.195 605.223 412.945 605.242 431.181C605.24 434.959 605.036 438.907 604.628 443.058Z" fill="black" stroke="black" stroke-width="5"/>
<path d="M291.5 282.045V337.792H158.771L143.062 282.045H291.5Z" fill="black"/>
<path d="M291.5 282.045V337.792H158.771L143.062 282.045H291.5Z" stroke="black"/>
<path d="M496.937 282.045L481.388 337.792H368.687V282.045H496.937Z" fill="black"/>
<path d="M496.937 282.045L481.388 337.792H368.687V282.045H496.937Z" stroke="black"/>
<path d="M323.092 132.564C368.961 132.564 438.854 136.94 462.877 145.675C486.921 154.408 504.349 169.698 513.083 191.524C515.867 198.463 523.027 218.129 531.519 241.75H114.685C123.177 218.129 130.359 198.463 133.102 191.524C141.856 169.698 159.304 154.409 183.348 145.675C207.352 136.941 277.243 132.564 323.092 132.564Z" fill="black"/>
<path d="M323.092 132.564C368.961 132.564 438.854 136.94 462.877 145.675C486.921 154.408 504.349 169.698 513.083 191.524C515.867 198.463 523.027 218.129 531.519 241.75H114.685C123.177 218.129 130.359 198.463 133.102 191.524C141.856 169.698 159.304 154.409 183.348 145.675C207.352 136.941 277.243 132.564 323.092 132.564Z" stroke="black"/>
</svg>
